<mxfile host="app.diagrams.net" modified="2023-04-09T10:17:53.023Z" agent="Mozilla/5.0 (Windows NT 10.0; Win64; x64) AppleWebKit/537.36 (KHTML, like Gecko) Chrome/112.0.0.0 Safari/537.36 Edg/112.0.1722.34" etag="ckM2veMxugJdNYcHpvjn" version="21.1.5" type="google">
  <diagram name="Page-1" id="IEE2TCR9XRX8UNDUOy5x">
    <mxGraphModel grid="1" page="1" gridSize="10" guides="1" tooltips="1" connect="1" arrows="1" fold="1" pageScale="1" pageWidth="850" pageHeight="1100" math="0" shadow="0">
      <root>
        <mxCell id="0" />
        <mxCell id="1" parent="0" />
        <mxCell id="5_lHhscFHtzA_Os-TW2t-1" value="WAN module&lt;br&gt;Load balacing" style="rounded=0;whiteSpace=wrap;html=1;" vertex="1" parent="1">
          <mxGeometry x="280" y="370" width="120" height="60" as="geometry" />
        </mxCell>
        <mxCell id="5_lHhscFHtzA_Os-TW2t-2" value="Perimeter&lt;br&gt;&lt;h1&gt;(NGFW)&lt;/h1&gt;" style="rounded=0;whiteSpace=wrap;html=1;" vertex="1" parent="1">
          <mxGeometry x="280" y="460" width="120" height="80" as="geometry" />
        </mxCell>
        <mxCell id="5_lHhscFHtzA_Os-TW2t-3" value="" style="rounded=0;whiteSpace=wrap;html=1;" vertex="1" parent="1">
          <mxGeometry x="290" y="770" width="540" height="130" as="geometry" />
        </mxCell>
        <mxCell id="5_lHhscFHtzA_Os-TW2t-4" value="Client Module&lt;br&gt;Staff&lt;span style=&quot;white-space: pre;&quot;&gt;	&lt;/span&gt;&lt;span style=&quot;white-space: pre;&quot;&gt;	&lt;/span&gt;Guest&lt;span style=&quot;white-space: pre;&quot;&gt;	&lt;/span&gt;Devices" style="rounded=0;whiteSpace=wrap;html=1;" vertex="1" parent="1">
          <mxGeometry x="-100" y="770" width="200" height="120" as="geometry" />
        </mxCell>
        <mxCell id="5_lHhscFHtzA_Os-TW2t-5" value="&lt;h1&gt;WAF&lt;/h1&gt;&lt;br&gt;&lt;br&gt;&lt;br&gt;WEB - API&lt;br&gt;DMZ module" style="rounded=0;whiteSpace=wrap;html=1;" vertex="1" parent="1">
          <mxGeometry x="-100" y="520" width="210" height="170" as="geometry" />
        </mxCell>
        <mxCell id="5_lHhscFHtzA_Os-TW2t-6" value="&lt;h1&gt;ACL&lt;/h1&gt;Core module&lt;br&gt;SWL3" style="rounded=0;whiteSpace=wrap;html=1;" vertex="1" parent="1">
          <mxGeometry x="280" y="560" width="120" height="120" as="geometry" />
        </mxCell>
        <mxCell id="5_lHhscFHtzA_Os-TW2t-9" value="" style="endArrow=none;html=1;rounded=0;exitX=0;exitY=0.5;exitDx=0;exitDy=0;" edge="1" parent="1" source="5_lHhscFHtzA_Os-TW2t-6">
          <mxGeometry width="50" height="50" relative="1" as="geometry">
            <mxPoint x="360" y="740" as="sourcePoint" />
            <mxPoint x="110" y="620" as="targetPoint" />
          </mxGeometry>
        </mxCell>
        <mxCell id="5_lHhscFHtzA_Os-TW2t-10" value="" style="endArrow=none;html=1;rounded=0;entryX=0.658;entryY=1.057;entryDx=0;entryDy=0;entryPerimeter=0;" edge="1" parent="1" target="5_lHhscFHtzA_Os-TW2t-6">
          <mxGeometry width="50" height="50" relative="1" as="geometry">
            <mxPoint x="500" y="700" as="sourcePoint" />
            <mxPoint x="130" y="640" as="targetPoint" />
            <Array as="points">
              <mxPoint x="359" y="700" />
            </Array>
          </mxGeometry>
        </mxCell>
        <mxCell id="5_lHhscFHtzA_Os-TW2t-11" value="" style="endArrow=none;html=1;rounded=0;entryX=0.5;entryY=0;entryDx=0;entryDy=0;" edge="1" parent="1" target="5_lHhscFHtzA_Os-TW2t-3">
          <mxGeometry width="50" height="50" relative="1" as="geometry">
            <mxPoint x="500" y="700" as="sourcePoint" />
            <mxPoint x="410" y="640" as="targetPoint" />
          </mxGeometry>
        </mxCell>
        <mxCell id="5_lHhscFHtzA_Os-TW2t-12" value="" style="endArrow=none;html=1;rounded=0;exitX=0.5;exitY=0;exitDx=0;exitDy=0;entryX=0.5;entryY=1;entryDx=0;entryDy=0;" edge="1" parent="1" source="5_lHhscFHtzA_Os-TW2t-6" target="5_lHhscFHtzA_Os-TW2t-2">
          <mxGeometry width="50" height="50" relative="1" as="geometry">
            <mxPoint x="290" y="660" as="sourcePoint" />
            <mxPoint x="130" y="660" as="targetPoint" />
          </mxGeometry>
        </mxCell>
        <mxCell id="5_lHhscFHtzA_Os-TW2t-13" value="" style="endArrow=none;html=1;rounded=0;exitX=0.5;exitY=1;exitDx=0;exitDy=0;entryX=0.5;entryY=0;entryDx=0;entryDy=0;" edge="1" parent="1" source="5_lHhscFHtzA_Os-TW2t-1" target="5_lHhscFHtzA_Os-TW2t-2">
          <mxGeometry width="50" height="50" relative="1" as="geometry">
            <mxPoint x="350" y="590" as="sourcePoint" />
            <mxPoint x="350" y="550" as="targetPoint" />
          </mxGeometry>
        </mxCell>
        <mxCell id="5_lHhscFHtzA_Os-TW2t-14" value="" style="endArrow=none;html=1;rounded=0;entryX=0.25;entryY=1;entryDx=0;entryDy=0;" edge="1" parent="1" target="5_lHhscFHtzA_Os-TW2t-6">
          <mxGeometry width="50" height="50" relative="1" as="geometry">
            <mxPoint x="310" y="730" as="sourcePoint" />
            <mxPoint x="410" y="640" as="targetPoint" />
          </mxGeometry>
        </mxCell>
        <mxCell id="5_lHhscFHtzA_Os-TW2t-15" value="" style="endArrow=none;html=1;rounded=0;" edge="1" parent="1">
          <mxGeometry width="50" height="50" relative="1" as="geometry">
            <mxPoint x="310" y="730" as="sourcePoint" />
            <mxPoint y="730" as="targetPoint" />
          </mxGeometry>
        </mxCell>
        <mxCell id="5_lHhscFHtzA_Os-TW2t-16" value="" style="endArrow=none;html=1;rounded=0;" edge="1" parent="1" source="5_lHhscFHtzA_Os-TW2t-4">
          <mxGeometry width="50" height="50" relative="1" as="geometry">
            <mxPoint x="320" y="710" as="sourcePoint" />
            <mxPoint y="730" as="targetPoint" />
          </mxGeometry>
        </mxCell>
        <mxCell id="5_lHhscFHtzA_Os-TW2t-19" value="DHCP,DNS&lt;br&gt;Infrastructure service" style="whiteSpace=wrap;html=1;aspect=fixed;" vertex="1" parent="1">
          <mxGeometry x="320" y="782.5" width="107.5" height="107.5" as="geometry" />
        </mxCell>
        <mxCell id="5_lHhscFHtzA_Os-TW2t-20" value="Payment&lt;span style=&quot;white-space: pre;&quot;&gt;	&lt;/span&gt;- REDIS&lt;br&gt;App Service&lt;br&gt;" style="whiteSpace=wrap;html=1;aspect=fixed;" vertex="1" parent="1">
          <mxGeometry x="510" y="782.5" width="110" height="110" as="geometry" />
        </mxCell>
        <mxCell id="5_lHhscFHtzA_Os-TW2t-21" value="&lt;h1&gt;DBF&lt;/h1&gt;MySQL&lt;br&gt;DB Server" style="whiteSpace=wrap;html=1;aspect=fixed;" vertex="1" parent="1">
          <mxGeometry x="680" y="782.5" width="110" height="110" as="geometry" />
        </mxCell>
        <mxCell id="5_lHhscFHtzA_Os-TW2t-31" value="" style="endArrow=none;html=1;rounded=0;" edge="1" parent="1">
          <mxGeometry width="50" height="50" relative="1" as="geometry">
            <mxPoint x="4" y="600" as="sourcePoint" />
            <mxPoint x="4.5" y="580" as="targetPoint" />
          </mxGeometry>
        </mxCell>
        <mxCell id="5_lHhscFHtzA_Os-TW2t-32" value="" style="endArrow=none;html=1;rounded=0;" edge="1" parent="1">
          <mxGeometry width="50" height="50" relative="1" as="geometry">
            <mxPoint x="24.5" y="599.5" as="sourcePoint" />
            <mxPoint x="-15.5" y="599.5" as="targetPoint" />
          </mxGeometry>
        </mxCell>
        <mxCell id="5_lHhscFHtzA_Os-TW2t-33" value="" style="endArrow=none;html=1;rounded=0;" edge="1" parent="1">
          <mxGeometry width="50" height="50" relative="1" as="geometry">
            <mxPoint x="-15.5" y="620" as="sourcePoint" />
            <mxPoint x="-15.5" y="600" as="targetPoint" />
          </mxGeometry>
        </mxCell>
        <mxCell id="5_lHhscFHtzA_Os-TW2t-34" value="" style="endArrow=none;html=1;rounded=0;" edge="1" parent="1">
          <mxGeometry width="50" height="50" relative="1" as="geometry">
            <mxPoint x="25" y="620" as="sourcePoint" />
            <mxPoint x="24.5" y="600" as="targetPoint" />
          </mxGeometry>
        </mxCell>
      </root>
    </mxGraphModel>
  </diagram>
</mxfile>
